# MagicaVoxel @ Ephtracy

# group
o 

# material
mtllib BonusBullet.mtl
usemtl palette

# normals
vn -1 0 0
vn 1 0 0
vn 0 0 1
vn 0 0 -1
vn 0 -1 0
vn 0 1 0

# texcoords
vt 0.369141 0.5
vt 0.404297 0.5
vt 0.556641 0.5

# verts
v -1.4 0.5 0.1
v -1.4 0.5 -0.1
v -1.4 2.4 0.1
v -1.4 2.4 -0.1
v -1.2 0.3 0.2
v -1.2 0.3 -0.2
v -1.2 0.5 0.1
v -1.2 0.5 -0.1
v -1.2 2.4 0.1
v -1.2 2.4 -0.1
v -1.2 2.5 0.2
v -1.2 2.5 -0.2
v -1.1 0.2 0.2
v -1.1 0.2 -0.2
v -1.1 0.3 0.2
v -1.1 0.3 -0.2
v -1.1 2.5 0.2
v -1.1 2.5 -0.2
v -1.1 3.1 0.2
v -1.1 3.1 -0.2
v -1 3.1 0.2
v -1 3.1 -0.2
v -1 3.5 0.2
v -1 3.5 -0.2
v -0.9 3.5 0.2
v -0.9 3.5 -0.2
v -0.9 3.6 0.2
v -0.9 3.6 -0.2
v -0.3 0.3 0.2
v -0.3 0.3 -0.2
v -0.3 0.4 0.1
v -0.3 0.4 -0.1
v -0.3 2.4 0.1
v -0.3 2.4 -0.1
v -0.3 2.5 0.2
v -0.3 2.5 -0.2
v -0.2 0.2 0.2
v -0.2 0.2 -0.2
v -0.2 0.3 0.2
v -0.2 0.3 -0.2
v -0.2 2.5 0.2
v -0.2 2.5 -0.2
v -0.2 3.1 0.2
v -0.2 3.1 -0.2
v -0.1 3.1 0.2
v -0.1 3.1 -0.2
v -0.1 3.5 0.2
v -0.1 3.5 -0.2
v 0 3.5 0.2
v 0 3.5 -0.2
v 0 3.6 0.2
v 0 3.6 -0.2
v 0.6 0.3 0.2
v 0.6 0.3 -0.2
v 0.6 0.4 0.1
v 0.6 0.4 -0.1
v 0.6 2.4 0.1
v 0.6 2.4 -0.1
v 0.6 2.5 0.2
v 0.6 2.5 -0.2
v 0.7 0.2 0.2
v 0.7 0.2 -0.2
v 0.7 0.3 0.2
v 0.7 0.3 -0.2
v 0.7 2.5 0.2
v 0.7 2.5 -0.2
v 0.7 3.1 0.2
v 0.7 3.1 -0.2
v 0.8 3.1 0.2
v 0.8 3.1 -0.2
v 0.8 3.5 0.2
v 0.8 3.5 -0.2
v 0.9 3.5 0.2
v 0.9 3.5 -0.2
v 0.9 3.6 0.2
v 0.9 3.6 -0.2
v -0.8 3.5 0.2
v -0.8 3.5 -0.2
v -0.8 3.6 0.2
v -0.8 3.6 -0.2
v -0.7 3.1 0.2
v -0.7 3.1 -0.2
v -0.7 3.5 0.2
v -0.7 3.5 -0.2
v -0.6 0.2 0.2
v -0.6 0.2 -0.2
v -0.6 0.3 0.2
v -0.6 0.3 -0.2
v -0.6 2.5 0.2
v -0.6 2.5 -0.2
v -0.6 3.1 0.2
v -0.6 3.1 -0.2
v -0.5 0.3 0.2
v -0.5 0.3 -0.2
v -0.5 0.4 0.1
v -0.5 0.4 -0.1
v -0.5 2.4 0.1
v -0.5 2.4 -0.1
v -0.5 2.5 0.2
v -0.5 2.5 -0.2
v 0.1 3.5 0.2
v 0.1 3.5 -0.2
v 0.1 3.6 0.2
v 0.1 3.6 -0.2
v 0.2 3.1 0.2
v 0.2 3.1 -0.2
v 0.2 3.5 0.2
v 0.2 3.5 -0.2
v 0.3 0.2 0.2
v 0.3 0.2 -0.2
v 0.3 0.3 0.2
v 0.3 0.3 -0.2
v 0.3 2.5 0.2
v 0.3 2.5 -0.2
v 0.3 3.1 0.2
v 0.3 3.1 -0.2
v 0.4 0.3 0.2
v 0.4 0.3 -0.2
v 0.4 0.4 0.1
v 0.4 0.4 -0.1
v 0.4 2.4 0.1
v 0.4 2.4 -0.1
v 0.4 2.5 0.2
v 0.4 2.5 -0.2
v 1 3.5 0.2
v 1 3.5 -0.2
v 1 3.6 0.2
v 1 3.6 -0.2
v 1.1 3.1 0.2
v 1.1 3.1 -0.2
v 1.1 3.5 0.2
v 1.1 3.5 -0.2
v 1.2 0.2 0.2
v 1.2 0.2 -0.2
v 1.2 0.3 0.2
v 1.2 0.3 -0.2
v 1.2 2.5 0.2
v 1.2 2.5 -0.2
v 1.2 3.1 0.2
v 1.2 3.1 -0.2
v 1.3 0.3 0.2
v 1.3 0.3 -0.2
v 1.3 0.5 0.1
v 1.3 0.5 -0.1
v 1.3 2.4 0.1
v 1.3 2.4 -0.1
v 1.3 2.5 0.2
v 1.3 2.5 -0.2
v 1.5 0.5 0.1
v 1.5 0.5 -0.1
v 1.5 2.4 0.1
v 1.5 2.4 -0.1
v -1.2 0.3 0.2
v -1.2 2.5 0.2
v -1.1 0.2 0.2
v -1.1 0.3 0.2
v -1.1 2 0.2
v -1.1 2.1 0.2
v -1.1 2.5 0.2
v -1.1 3.1 0.2
v -1 2.6 0.2
v -1 3.1 0.2
v -1 3.5 0.2
v -0.9 3.1 0.2
v -0.9 3.3 0.2
v -0.9 3.5 0.2
v -0.9 3.6 0.2
v -0.8 3.1 0.2
v -0.8 3.3 0.2
v -0.8 3.5 0.2
v -0.8 3.6 0.2
v -0.7 2.6 0.2
v -0.7 3.1 0.2
v -0.7 3.5 0.2
v -0.6 0.2 0.2
v -0.6 0.3 0.2
v -0.6 2 0.2
v -0.6 2.1 0.2
v -0.6 2.5 0.2
v -0.6 3.1 0.2
v -0.5 0.3 0.2
v -0.5 2.5 0.2
v -0.3 0.3 0.2
v -0.3 2.5 0.2
v -0.2 0.2 0.2
v -0.2 0.3 0.2
v -0.2 2 0.2
v -0.2 2.1 0.2
v -0.2 2.5 0.2
v -0.2 3.1 0.2
v -0.1 2.6 0.2
v -0.1 3.1 0.2
v -0.1 3.5 0.2
v 0 3.1 0.2
v 0 3.3 0.2
v 0 3.5 0.2
v 0 3.6 0.2
v 0.1 3.1 0.2
v 0.1 3.3 0.2
v 0.1 3.5 0.2
v 0.1 3.6 0.2
v 0.2 2.6 0.2
v 0.2 3.1 0.2
v 0.2 3.5 0.2
v 0.3 0.2 0.2
v 0.3 0.3 0.2
v 0.3 2 0.2
v 0.3 2.1 0.2
v 0.3 2.5 0.2
v 0.3 3.1 0.2
v 0.4 0.3 0.2
v 0.4 2.5 0.2
v 0.6 0.3 0.2
v 0.6 2.5 0.2
v 0.7 0.2 0.2
v 0.7 0.3 0.2
v 0.7 2 0.2
v 0.7 2.1 0.2
v 0.7 2.5 0.2
v 0.7 3.1 0.2
v 0.8 2.6 0.2
v 0.8 3.1 0.2
v 0.8 3.5 0.2
v 0.9 3.1 0.2
v 0.9 3.3 0.2
v 0.9 3.5 0.2
v 0.9 3.6 0.2
v 1 3.1 0.2
v 1 3.3 0.2
v 1 3.5 0.2
v 1 3.6 0.2
v 1.1 2.6 0.2
v 1.1 3.1 0.2
v 1.1 3.5 0.2
v 1.2 0.2 0.2
v 1.2 0.3 0.2
v 1.2 2 0.2
v 1.2 2.1 0.2
v 1.2 2.5 0.2
v 1.2 3.1 0.2
v 1.3 0.3 0.2
v 1.3 2.5 0.2
v -1.4 0.5 0.1
v -1.4 2.4 0.1
v -1.2 0.5 0.1
v -1.2 2.4 0.1
v -0.5 0.4 0.1
v -0.5 2.4 0.1
v -0.3 0.4 0.1
v -0.3 2.4 0.1
v 0.4 0.4 0.1
v 0.4 2.4 0.1
v 0.6 0.4 0.1
v 0.6 2.4 0.1
v 1.3 0.5 0.1
v 1.3 2.4 0.1
v 1.5 0.5 0.1
v 1.5 2.4 0.1
v -1.4 0.5 -0.1
v -1.4 2.4 -0.1
v -1.2 0.5 -0.1
v -1.2 2.4 -0.1
v -0.5 0.4 -0.1
v -0.5 2.4 -0.1
v -0.3 0.4 -0.1
v -0.3 2.4 -0.1
v 0.4 0.4 -0.1
v 0.4 2.4 -0.1
v 0.6 0.4 -0.1
v 0.6 2.4 -0.1
v 1.3 0.5 -0.1
v 1.3 2.4 -0.1
v 1.5 0.5 -0.1
v 1.5 2.4 -0.1
v -1.2 0.3 -0.2
v -1.2 2.5 -0.2
v -1.1 0.2 -0.2
v -1.1 0.3 -0.2
v -1.1 2 -0.2
v -1.1 2.1 -0.2
v -1.1 2.5 -0.2
v -1.1 3.1 -0.2
v -1 2.6 -0.2
v -1 3.1 -0.2
v -1 3.5 -0.2
v -0.9 3.1 -0.2
v -0.9 3.3 -0.2
v -0.9 3.5 -0.2
v -0.9 3.6 -0.2
v -0.8 3.1 -0.2
v -0.8 3.3 -0.2
v -0.8 3.5 -0.2
v -0.8 3.6 -0.2
v -0.7 2.6 -0.2
v -0.7 3.1 -0.2
v -0.7 3.5 -0.2
v -0.6 0.2 -0.2
v -0.6 0.3 -0.2
v -0.6 2 -0.2
v -0.6 2.1 -0.2
v -0.6 2.5 -0.2
v -0.6 3.1 -0.2
v -0.5 0.3 -0.2
v -0.5 2.5 -0.2
v -0.3 0.3 -0.2
v -0.3 2.5 -0.2
v -0.2 0.2 -0.2
v -0.2 0.3 -0.2
v -0.2 2 -0.2
v -0.2 2.1 -0.2
v -0.2 2.5 -0.2
v -0.2 3.1 -0.2
v -0.1 2.6 -0.2
v -0.1 3.1 -0.2
v -0.1 3.5 -0.2
v 0 3.1 -0.2
v 0 3.3 -0.2
v 0 3.5 -0.2
v 0 3.6 -0.2
v 0.1 3.1 -0.2
v 0.1 3.3 -0.2
v 0.1 3.5 -0.2
v 0.1 3.6 -0.2
v 0.2 2.6 -0.2
v 0.2 3.1 -0.2
v 0.2 3.5 -0.2
v 0.3 0.2 -0.2
v 0.3 0.3 -0.2
v 0.3 2 -0.2
v 0.3 2.1 -0.2
v 0.3 2.5 -0.2
v 0.3 3.1 -0.2
v 0.4 0.3 -0.2
v 0.4 2.5 -0.2
v 0.6 0.3 -0.2
v 0.6 2.5 -0.2
v 0.7 0.2 -0.2
v 0.7 0.3 -0.2
v 0.7 2 -0.2
v 0.7 2.1 -0.2
v 0.7 2.5 -0.2
v 0.7 3.1 -0.2
v 0.8 2.6 -0.2
v 0.8 3.1 -0.2
v 0.8 3.5 -0.2
v 0.9 3.1 -0.2
v 0.9 3.3 -0.2
v 0.9 3.5 -0.2
v 0.9 3.6 -0.2
v 1 3.1 -0.2
v 1 3.3 -0.2
v 1 3.5 -0.2
v 1 3.6 -0.2
v 1.1 2.6 -0.2
v 1.1 3.1 -0.2
v 1.1 3.5 -0.2
v 1.2 0.2 -0.2
v 1.2 0.3 -0.2
v 1.2 2 -0.2
v 1.2 2.1 -0.2
v 1.2 2.5 -0.2
v 1.2 3.1 -0.2
v 1.3 0.3 -0.2
v 1.3 2.5 -0.2
v -1.1 0.2 0.2
v -0.6 0.2 0.2
v -0.2 0.2 0.2
v 0.3 0.2 0.2
v 0.7 0.2 0.2
v 1.2 0.2 0.2
v -1.1 0.2 -0.2
v -0.6 0.2 -0.2
v -0.2 0.2 -0.2
v 0.3 0.2 -0.2
v 0.7 0.2 -0.2
v 1.2 0.2 -0.2
v -1.2 0.3 0.2
v -1.1 0.3 0.2
v -0.6 0.3 0.2
v -0.5 0.3 0.2
v -0.3 0.3 0.2
v -0.2 0.3 0.2
v 0.3 0.3 0.2
v 0.4 0.3 0.2
v 0.6 0.3 0.2
v 0.7 0.3 0.2
v 1.2 0.3 0.2
v 1.3 0.3 0.2
v -1.2 0.3 -0.2
v -1.1 0.3 -0.2
v -0.6 0.3 -0.2
v -0.5 0.3 -0.2
v -0.3 0.3 -0.2
v -0.2 0.3 -0.2
v 0.3 0.3 -0.2
v 0.4 0.3 -0.2
v 0.6 0.3 -0.2
v 0.7 0.3 -0.2
v 1.2 0.3 -0.2
v 1.3 0.3 -0.2
v -0.5 0.4 0.1
v -0.3 0.4 0.1
v 0.4 0.4 0.1
v 0.6 0.4 0.1
v -0.5 0.4 -0.1
v -0.3 0.4 -0.1
v 0.4 0.4 -0.1
v 0.6 0.4 -0.1
v -1.4 0.5 0.1
v -1.2 0.5 0.1
v 1.3 0.5 0.1
v 1.5 0.5 0.1
v -1.4 0.5 -0.1
v -1.2 0.5 -0.1
v 1.3 0.5 -0.1
v 1.5 0.5 -0.1
v -1.4 2.4 0.1
v -1.2 2.4 0.1
v -0.5 2.4 0.1
v -0.3 2.4 0.1
v 0.4 2.4 0.1
v 0.6 2.4 0.1
v 1.3 2.4 0.1
v 1.5 2.4 0.1
v -1.4 2.4 -0.1
v -1.2 2.4 -0.1
v -0.5 2.4 -0.1
v -0.3 2.4 -0.1
v 0.4 2.4 -0.1
v 0.6 2.4 -0.1
v 1.3 2.4 -0.1
v 1.5 2.4 -0.1
v -1.2 2.5 0.2
v -1.1 2.5 0.2
v -0.6 2.5 0.2
v -0.5 2.5 0.2
v -0.3 2.5 0.2
v -0.2 2.5 0.2
v 0.3 2.5 0.2
v 0.4 2.5 0.2
v 0.6 2.5 0.2
v 0.7 2.5 0.2
v 1.2 2.5 0.2
v 1.3 2.5 0.2
v -1.2 2.5 -0.2
v -1.1 2.5 -0.2
v -0.6 2.5 -0.2
v -0.5 2.5 -0.2
v -0.3 2.5 -0.2
v -0.2 2.5 -0.2
v 0.3 2.5 -0.2
v 0.4 2.5 -0.2
v 0.6 2.5 -0.2
v 0.7 2.5 -0.2
v 1.2 2.5 -0.2
v 1.3 2.5 -0.2
v -1.1 3.1 0.2
v -1 3.1 0.2
v -0.7 3.1 0.2
v -0.6 3.1 0.2
v -0.2 3.1 0.2
v -0.1 3.1 0.2
v 0.2 3.1 0.2
v 0.3 3.1 0.2
v 0.7 3.1 0.2
v 0.8 3.1 0.2
v 1.1 3.1 0.2
v 1.2 3.1 0.2
v -1.1 3.1 -0.2
v -1 3.1 -0.2
v -0.7 3.1 -0.2
v -0.6 3.1 -0.2
v -0.2 3.1 -0.2
v -0.1 3.1 -0.2
v 0.2 3.1 -0.2
v 0.3 3.1 -0.2
v 0.7 3.1 -0.2
v 0.8 3.1 -0.2
v 1.1 3.1 -0.2
v 1.2 3.1 -0.2
v -1 3.5 0.2
v -0.9 3.5 0.2
v -0.8 3.5 0.2
v -0.7 3.5 0.2
v -0.1 3.5 0.2
v 0 3.5 0.2
v 0.1 3.5 0.2
v 0.2 3.5 0.2
v 0.8 3.5 0.2
v 0.9 3.5 0.2
v 1 3.5 0.2
v 1.1 3.5 0.2
v -1 3.5 -0.2
v -0.9 3.5 -0.2
v -0.8 3.5 -0.2
v -0.7 3.5 -0.2
v -0.1 3.5 -0.2
v 0 3.5 -0.2
v 0.1 3.5 -0.2
v 0.2 3.5 -0.2
v 0.8 3.5 -0.2
v 0.9 3.5 -0.2
v 1 3.5 -0.2
v 1.1 3.5 -0.2
v -0.9 3.6 0.2
v -0.8 3.6 0.2
v 0 3.6 0.2
v 0.1 3.6 0.2
v 0.9 3.6 0.2
v 1 3.6 0.2
v -0.9 3.6 -0.2
v -0.8 3.6 -0.2
v 0 3.6 -0.2
v 0.1 3.6 -0.2
v 0.9 3.6 -0.2
v 1 3.6 -0.2

# faces
f 3/3/1 2/3/1 1/3/1
f 4/3/1 2/3/1 3/3/1
f 7/1/1 6/1/1 5/1/1
f 8/1/1 6/1/1 7/1/1
f 9/1/1 7/1/1 5/1/1
f 10/1/1 6/1/1 8/1/1
f 11/1/1 9/1/1 5/1/1
f 11/1/1 10/1/1 9/1/1
f 12/1/1 6/1/1 10/1/1
f 12/1/1 10/1/1 11/1/1
f 15/1/1 14/1/1 13/1/1
f 16/1/1 14/1/1 15/1/1
f 19/1/1 18/1/1 17/1/1
f 20/1/1 18/1/1 19/1/1
f 23/1/1 22/1/1 21/1/1
f 24/1/1 22/1/1 23/1/1
f 27/1/1 26/1/1 25/1/1
f 28/1/1 26/1/1 27/1/1
f 31/1/1 30/1/1 29/1/1
f 32/1/1 30/1/1 31/1/1
f 33/1/1 31/1/1 29/1/1
f 34/1/1 30/1/1 32/1/1
f 35/1/1 33/1/1 29/1/1
f 35/1/1 34/1/1 33/1/1
f 36/1/1 30/1/1 34/1/1
f 36/1/1 34/1/1 35/1/1
f 39/1/1 38/1/1 37/1/1
f 40/1/1 38/1/1 39/1/1
f 43/1/1 42/1/1 41/1/1
f 44/1/1 42/1/1 43/1/1
f 47/1/1 46/1/1 45/1/1
f 48/1/1 46/1/1 47/1/1
f 51/1/1 50/1/1 49/1/1
f 52/1/1 50/1/1 51/1/1
f 55/1/1 54/1/1 53/1/1
f 56/1/1 54/1/1 55/1/1
f 57/1/1 55/1/1 53/1/1
f 58/1/1 54/1/1 56/1/1
f 59/1/1 57/1/1 53/1/1
f 59/1/1 58/1/1 57/1/1
f 60/1/1 54/1/1 58/1/1
f 60/1/1 58/1/1 59/1/1
f 63/1/1 62/1/1 61/1/1
f 64/1/1 62/1/1 63/1/1
f 67/1/1 66/1/1 65/1/1
f 68/1/1 66/1/1 67/1/1
f 71/1/1 70/1/1 69/1/1
f 72/1/1 70/1/1 71/1/1
f 75/1/1 74/1/1 73/1/1
f 76/1/1 74/1/1 75/1/1
f 77/1/2 78/1/2 79/1/2
f 79/1/2 78/1/2 80/1/2
f 81/1/2 82/1/2 83/1/2
f 83/1/2 82/1/2 84/1/2
f 85/1/2 86/1/2 87/1/2
f 87/1/2 86/1/2 88/1/2
f 89/1/2 90/1/2 91/1/2
f 91/1/2 90/1/2 92/1/2
f 93/1/2 94/1/2 95/1/2
f 95/1/2 94/1/2 96/1/2
f 93/1/2 95/1/2 97/1/2
f 96/1/2 94/1/2 98/1/2
f 93/1/2 97/1/2 99/1/2
f 97/1/2 98/1/2 99/1/2
f 98/1/2 94/1/2 100/1/2
f 99/1/2 98/1/2 100/1/2
f 101/1/2 102/1/2 103/1/2
f 103/1/2 102/1/2 104/1/2
f 105/1/2 106/1/2 107/1/2
f 107/1/2 106/1/2 108/1/2
f 109/1/2 110/1/2 111/1/2
f 111/1/2 110/1/2 112/1/2
f 113/1/2 114/1/2 115/1/2
f 115/1/2 114/1/2 116/1/2
f 117/1/2 118/1/2 119/1/2
f 119/1/2 118/1/2 120/1/2
f 117/1/2 119/1/2 121/1/2
f 120/1/2 118/1/2 122/1/2
f 117/1/2 121/1/2 123/1/2
f 121/1/2 122/1/2 123/1/2
f 122/1/2 118/1/2 124/1/2
f 123/1/2 122/1/2 124/1/2
f 125/1/2 126/1/2 127/1/2
f 127/1/2 126/1/2 128/1/2
f 129/1/2 130/1/2 131/1/2
f 131/1/2 130/1/2 132/1/2
f 133/1/2 134/1/2 135/1/2
f 135/1/2 134/1/2 136/1/2
f 137/1/2 138/1/2 139/1/2
f 139/1/2 138/1/2 140/1/2
f 141/1/2 142/1/2 143/1/2
f 143/1/2 142/1/2 144/1/2
f 141/1/2 143/1/2 145/1/2
f 144/1/2 142/1/2 146/1/2
f 141/1/2 145/1/2 147/1/2
f 145/1/2 146/1/2 147/1/2
f 146/1/2 142/1/2 148/1/2
f 147/1/2 146/1/2 148/1/2
f 149/3/2 150/3/2 151/3/2
f 151/3/2 150/3/2 152/3/2
f 156/1/3 154/1/3 153/1/3
f 157/1/3 154/1/3 156/1/3
f 158/1/3 154/1/3 157/1/3
f 159/1/3 154/1/3 158/1/3
f 161/1/3 160/1/3 159/1/3
f 162/1/3 160/1/3 161/1/3
f 164/2/3 162/2/3 161/2/3
f 164/1/3 163/1/3 162/1/3
f 165/1/3 163/1/3 164/1/3
f 166/1/3 163/1/3 165/1/3
f 168/2/3 164/2/3 161/2/3
f 168/2/3 165/2/3 164/2/3
f 169/1/3 167/1/3 166/1/3
f 169/2/3 165/2/3 168/2/3
f 169/1/3 166/1/3 165/1/3
f 170/1/3 167/1/3 169/1/3
f 171/1/3 167/1/3 170/1/3
f 172/1/3 161/1/3 159/1/3
f 172/2/3 168/2/3 161/2/3
f 173/1/3 170/1/3 169/1/3
f 173/2/3 168/2/3 172/2/3
f 173/1/3 169/1/3 168/1/3
f 174/1/3 170/1/3 173/1/3
f 175/1/3 156/1/3 155/1/3
f 176/2/3 157/2/3 156/2/3
f 176/1/3 156/1/3 175/1/3
f 177/1/3 158/1/3 157/1/3
f 177/2/3 157/2/3 176/2/3
f 178/2/3 159/2/3 158/2/3
f 178/1/3 158/1/3 177/1/3
f 179/1/3 172/1/3 159/1/3
f 179/2/3 159/2/3 178/2/3
f 179/1/3 173/1/3 172/1/3
f 180/1/3 173/1/3 179/1/3
f 181/1/3 177/1/3 176/1/3
f 181/1/3 179/1/3 178/1/3
f 181/1/3 178/1/3 177/1/3
f 182/1/3 179/1/3 181/1/3
f 186/1/3 184/1/3 183/1/3
f 187/1/3 184/1/3 186/1/3
f 188/1/3 184/1/3 187/1/3
f 189/1/3 184/1/3 188/1/3
f 191/1/3 190/1/3 189/1/3
f 192/1/3 190/1/3 191/1/3
f 194/2/3 192/2/3 191/2/3
f 194/1/3 193/1/3 192/1/3
f 195/1/3 193/1/3 194/1/3
f 196/1/3 193/1/3 195/1/3
f 198/2/3 194/2/3 191/2/3
f 198/2/3 195/2/3 194/2/3
f 199/1/3 196/1/3 195/1/3
f 199/2/3 195/2/3 198/2/3
f 199/1/3 197/1/3 196/1/3
f 200/1/3 197/1/3 199/1/3
f 201/1/3 197/1/3 200/1/3
f 202/2/3 198/2/3 191/2/3
f 202/1/3 191/1/3 189/1/3
f 203/1/3 200/1/3 199/1/3
f 203/2/3 198/2/3 202/2/3
f 203/1/3 199/1/3 198/1/3
f 204/1/3 200/1/3 203/1/3
f 205/1/3 186/1/3 185/1/3
f 206/2/3 187/2/3 186/2/3
f 206/1/3 186/1/3 205/1/3
f 207/1/3 188/1/3 187/1/3
f 207/2/3 187/2/3 206/2/3
f 208/2/3 189/2/3 188/2/3
f 208/1/3 188/1/3 207/1/3
f 209/1/3 202/1/3 189/1/3
f 209/2/3 189/2/3 208/2/3
f 209/1/3 203/1/3 202/1/3
f 210/1/3 203/1/3 209/1/3
f 211/1/3 208/1/3 207/1/3
f 211/1/3 207/1/3 206/1/3
f 211/1/3 209/1/3 208/1/3
f 212/1/3 209/1/3 211/1/3
f 216/1/3 214/1/3 213/1/3
f 217/1/3 214/1/3 216/1/3
f 218/1/3 214/1/3 217/1/3
f 219/1/3 214/1/3 218/1/3
f 221/1/3 220/1/3 219/1/3
f 222/1/3 220/1/3 221/1/3
f 224/2/3 222/2/3 221/2/3
f 224/1/3 223/1/3 222/1/3
f 225/1/3 223/1/3 224/1/3
f 226/1/3 223/1/3 225/1/3
f 228/2/3 224/2/3 221/2/3
f 228/2/3 225/2/3 224/2/3
f 229/1/3 226/1/3 225/1/3
f 229/2/3 225/2/3 228/2/3
f 229/1/3 227/1/3 226/1/3
f 230/1/3 227/1/3 229/1/3
f 231/1/3 227/1/3 230/1/3
f 232/1/3 221/1/3 219/1/3
f 232/2/3 228/2/3 221/2/3
f 233/1/3 230/1/3 229/1/3
f 233/2/3 228/2/3 232/2/3
f 233/1/3 229/1/3 228/1/3
f 234/1/3 230/1/3 233/1/3
f 235/1/3 216/1/3 215/1/3
f 236/2/3 217/2/3 216/2/3
f 236/1/3 216/1/3 235/1/3
f 237/1/3 218/1/3 217/1/3
f 237/2/3 217/2/3 236/2/3
f 238/2/3 219/2/3 218/2/3
f 238/1/3 218/1/3 237/1/3
f 239/1/3 232/1/3 219/1/3
f 239/2/3 219/2/3 238/2/3
f 239/1/3 233/1/3 232/1/3
f 240/1/3 233/1/3 239/1/3
f 241/1/3 238/1/3 237/1/3
f 241/1/3 237/1/3 236/1/3
f 241/1/3 239/1/3 238/1/3
f 242/1/3 239/1/3 241/1/3
f 245/3/3 244/3/3 243/3/3
f 246/3/3 244/3/3 245/3/3
f 249/3/3 248/3/3 247/3/3
f 250/3/3 248/3/3 249/3/3
f 253/3/3 252/3/3 251/3/3
f 254/3/3 252/3/3 253/3/3
f 257/3/3 256/3/3 255/3/3
f 258/3/3 256/3/3 257/3/3
f 259/3/4 260/3/4 261/3/4
f 261/3/4 260/3/4 262/3/4
f 263/3/4 264/3/4 265/3/4
f 265/3/4 264/3/4 266/3/4
f 267/3/4 268/3/4 269/3/4
f 269/3/4 268/3/4 270/3/4
f 271/3/4 272/3/4 273/3/4
f 273/3/4 272/3/4 274/3/4
f 275/1/4 276/1/4 278/1/4
f 278/1/4 276/1/4 279/1/4
f 279/1/4 276/1/4 280/1/4
f 280/1/4 276/1/4 281/1/4
f 281/1/4 282/1/4 283/1/4
f 283/1/4 282/1/4 284/1/4
f 283/2/4 284/2/4 286/2/4
f 284/1/4 285/1/4 286/1/4
f 286/1/4 285/1/4 287/1/4
f 287/1/4 285/1/4 288/1/4
f 283/2/4 286/2/4 290/2/4
f 286/2/4 287/2/4 290/2/4
f 288/1/4 289/1/4 291/1/4
f 290/2/4 287/2/4 291/2/4
f 287/1/4 288/1/4 291/1/4
f 291/1/4 289/1/4 292/1/4
f 292/1/4 289/1/4 293/1/4
f 281/1/4 283/1/4 294/1/4
f 283/2/4 290/2/4 294/2/4
f 291/1/4 292/1/4 295/1/4
f 294/2/4 290/2/4 295/2/4
f 290/1/4 291/1/4 295/1/4
f 295/1/4 292/1/4 296/1/4
f 277/1/4 278/1/4 297/1/4
f 278/2/4 279/2/4 298/2/4
f 297/1/4 278/1/4 298/1/4
f 279/1/4 280/1/4 299/1/4
f 298/2/4 279/2/4 299/2/4
f 280/2/4 281/2/4 300/2/4
f 299/1/4 280/1/4 300/1/4
f 281/1/4 294/1/4 301/1/4
f 300/2/4 281/2/4 301/2/4
f 294/1/4 295/1/4 301/1/4
f 301/1/4 295/1/4 302/1/4
f 298/1/4 299/1/4 303/1/4
f 300/1/4 301/1/4 303/1/4
f 299/1/4 300/1/4 303/1/4
f 303/1/4 301/1/4 304/1/4
f 305/1/4 306/1/4 308/1/4
f 308/1/4 306/1/4 309/1/4
f 309/1/4 306/1/4 310/1/4
f 310/1/4 306/1/4 311/1/4
f 311/1/4 312/1/4 313/1/4
f 313/1/4 312/1/4 314/1/4
f 313/2/4 314/2/4 316/2/4
f 314/1/4 315/1/4 316/1/4
f 316/1/4 315/1/4 317/1/4
f 317/1/4 315/1/4 318/1/4
f 313/2/4 316/2/4 320/2/4
f 316/2/4 317/2/4 320/2/4
f 317/1/4 318/1/4 321/1/4
f 320/2/4 317/2/4 321/2/4
f 318/1/4 319/1/4 321/1/4
f 321/1/4 319/1/4 322/1/4
f 322/1/4 319/1/4 323/1/4
f 313/2/4 320/2/4 324/2/4
f 311/1/4 313/1/4 324/1/4
f 321/1/4 322/1/4 325/1/4
f 324/2/4 320/2/4 325/2/4
f 320/1/4 321/1/4 325/1/4
f 325/1/4 322/1/4 326/1/4
f 307/1/4 308/1/4 327/1/4
f 308/2/4 309/2/4 328/2/4
f 327/1/4 308/1/4 328/1/4
f 309/1/4 310/1/4 329/1/4
f 328/2/4 309/2/4 329/2/4
f 310/2/4 311/2/4 330/2/4
f 329/1/4 310/1/4 330/1/4
f 311/1/4 324/1/4 331/1/4
f 330/2/4 311/2/4 331/2/4
f 324/1/4 325/1/4 331/1/4
f 331/1/4 325/1/4 332/1/4
f 329/1/4 330/1/4 333/1/4
f 328/1/4 329/1/4 333/1/4
f 330/1/4 331/1/4 333/1/4
f 333/1/4 331/1/4 334/1/4
f 335/1/4 336/1/4 338/1/4
f 338/1/4 336/1/4 339/1/4
f 339/1/4 336/1/4 340/1/4
f 340/1/4 336/1/4 341/1/4
f 341/1/4 342/1/4 343/1/4
f 343/1/4 342/1/4 344/1/4
f 343/2/4 344/2/4 346/2/4
f 344/1/4 345/1/4 346/1/4
f 346/1/4 345/1/4 347/1/4
f 347/1/4 345/1/4 348/1/4
f 343/2/4 346/2/4 350/2/4
f 346/2/4 347/2/4 350/2/4
f 347/1/4 348/1/4 351/1/4
f 350/2/4 347/2/4 351/2/4
f 348/1/4 349/1/4 351/1/4
f 351/1/4 349/1/4 352/1/4
f 352/1/4 349/1/4 353/1/4
f 341/1/4 343/1/4 354/1/4
f 343/2/4 350/2/4 354/2/4
f 351/1/4 352/1/4 355/1/4
f 354/2/4 350/2/4 355/2/4
f 350/1/4 351/1/4 355/1/4
f 355/1/4 352/1/4 356/1/4
f 337/1/4 338/1/4 357/1/4
f 338/2/4 339/2/4 358/2/4
f 357/1/4 338/1/4 358/1/4
f 339/1/4 340/1/4 359/1/4
f 358/2/4 339/2/4 359/2/4
f 340/2/4 341/2/4 360/2/4
f 359/1/4 340/1/4 360/1/4
f 341/1/4 354/1/4 361/1/4
f 360/2/4 341/2/4 361/2/4
f 354/1/4 355/1/4 361/1/4
f 361/1/4 355/1/4 362/1/4
f 359/1/4 360/1/4 363/1/4
f 358/1/4 359/1/4 363/1/4
f 360/1/4 361/1/4 363/1/4
f 363/1/4 361/1/4 364/1/4
f 371/1/5 366/1/5 365/1/5
f 372/1/5 366/1/5 371/1/5
f 373/1/5 368/1/5 367/1/5
f 374/1/5 368/1/5 373/1/5
f 375/1/5 370/1/5 369/1/5
f 376/1/5 370/1/5 375/1/5
f 389/1/5 378/1/5 377/1/5
f 390/1/5 378/1/5 389/1/5
f 391/1/5 380/1/5 379/1/5
f 392/1/5 380/1/5 391/1/5
f 393/1/5 382/1/5 381/1/5
f 394/1/5 382/1/5 393/1/5
f 395/1/5 384/1/5 383/1/5
f 396/1/5 384/1/5 395/1/5
f 397/1/5 386/1/5 385/1/5
f 398/1/5 386/1/5 397/1/5
f 399/1/5 388/1/5 387/1/5
f 400/1/5 388/1/5 399/1/5
f 405/3/5 402/3/5 401/3/5
f 406/3/5 402/3/5 405/3/5
f 407/3/5 404/3/5 403/3/5
f 408/3/5 404/3/5 407/3/5
f 413/3/5 410/3/5 409/3/5
f 414/3/5 410/3/5 413/3/5
f 415/3/5 412/3/5 411/3/5
f 416/3/5 412/3/5 415/3/5
f 417/3/6 418/3/6 425/3/6
f 425/3/6 418/3/6 426/3/6
f 419/3/6 420/3/6 427/3/6
f 427/3/6 420/3/6 428/3/6
f 421/3/6 422/3/6 429/3/6
f 429/3/6 422/3/6 430/3/6
f 423/3/6 424/3/6 431/3/6
f 431/3/6 424/3/6 432/3/6
f 433/1/6 434/1/6 445/1/6
f 445/1/6 434/1/6 446/1/6
f 435/1/6 436/1/6 447/1/6
f 447/1/6 436/1/6 448/1/6
f 437/1/6 438/1/6 449/1/6
f 449/1/6 438/1/6 450/1/6
f 439/1/6 440/1/6 451/1/6
f 451/1/6 440/1/6 452/1/6
f 441/1/6 442/1/6 453/1/6
f 453/1/6 442/1/6 454/1/6
f 443/1/6 444/1/6 455/1/6
f 455/1/6 444/1/6 456/1/6
f 457/1/6 458/1/6 469/1/6
f 469/1/6 458/1/6 470/1/6
f 459/1/6 460/1/6 471/1/6
f 471/1/6 460/1/6 472/1/6
f 461/1/6 462/1/6 473/1/6
f 473/1/6 462/1/6 474/1/6
f 463/1/6 464/1/6 475/1/6
f 475/1/6 464/1/6 476/1/6
f 465/1/6 466/1/6 477/1/6
f 477/1/6 466/1/6 478/1/6
f 467/1/6 468/1/6 479/1/6
f 479/1/6 468/1/6 480/1/6
f 481/1/6 482/1/6 493/1/6
f 493/1/6 482/1/6 494/1/6
f 483/1/6 484/1/6 495/1/6
f 495/1/6 484/1/6 496/1/6
f 485/1/6 486/1/6 497/1/6
f 497/1/6 486/1/6 498/1/6
f 487/1/6 488/1/6 499/1/6
f 499/1/6 488/1/6 500/1/6
f 489/1/6 490/1/6 501/1/6
f 501/1/6 490/1/6 502/1/6
f 491/1/6 492/1/6 503/1/6
f 503/1/6 492/1/6 504/1/6
f 505/1/6 506/1/6 511/1/6
f 511/1/6 506/1/6 512/1/6
f 507/1/6 508/1/6 513/1/6
f 513/1/6 508/1/6 514/1/6
f 509/1/6 510/1/6 515/1/6
f 515/1/6 510/1/6 516/1/6
